P3
53 80
255
0 0 0 0 0 0 0 0 0 0 0 0 0 0 0 0 0 0 0 0 0 0 0 0 
0 0 0 0 0 0 0 0 0 0 0 0 0 0 0 0 0 0 0 0 0 0 0 0 
0 0 0 0 0 0 0 0 0 0 0 0 0 0 0 0 0 0 0 0 0 0 0 0 
0 0 0 0 0 0 0 0 0 0 0 0 0 0 0 0 0 0 0 0 0 0 0 0 
0 0 0 0 0 0 0 0 0 0 0 0 0 0 0 0 0 0 0 0 0 0 0 0 
0 0 0 0 0 0 0 0 0 0 0 0 0 0 0 0 0 0 0 0 0 0 0 0 
0 0 0 0 0 0 0 0 0 0 0 0 0 0 0 
0 0 0 0 0 0 0 0 0 0 0 0 0 0 0 0 0 0 0 0 0 0 0 0 
0 0 0 0 0 0 0 0 0 0 0 0 0 0 0 0 0 0 0 0 0 0 0 0 
0 0 0 0 0 0 0 0 0 0 0 0 0 0 0 0 0 0 0 0 0 0 0 0 
0 0 0 0 0 0 0 0 0 0 0 0 0 0 0 0 0 0 0 0 0 0 0 0 
0 0 0 0 0 0 0 0 0 0 0 0 0 0 0 0 0 0 0 0 0 0 0 0 
0 0 0 0 0 0 0 0 0 0 0 0 0 0 0 0 0 0 0 0 0 0 0 0 
0 0 0 0 0 0 0 0 0 0 0 0 0 0 0 
0 0 0 0 0 0 0 0 0 0 0 0 0 0 0 0 0 0 0 0 0 0 0 0 
0 0 0 0 0 0 0 0 0 0 0 0 0 0 0 0 0 0 0 0 0 0 0 0 
0 0 0 0 0 0 0 0 0 0 0 0 0 0 0 0 0 0 0 0 0 0 0 0 
0 0 0 0 0 0 0 0 0 0 0 0 0 0 0 0 0 0 0 0 0 0 0 0 
0 0 0 0 0 0 0 0 0 0 0 0 0 0 0 0 0 0 0 0 0 0 0 0 
0 0 0 0 0 0 0 0 0 0 0 0 0 0 0 0 0 0 0 0 0 0 0 0 
0 0 0 0 0 0 0 0 0 0 0 0 0 0 0 
0 0 0 0 0 0 0 0 0 0 0 0 0 0 0 0 0 0 0 0 0 0 0 0 
0 0 0 0 0 0 0 0 0 0 0 0 0 0 0 0 0 0 0 0 0 13 13 13 
34 34 34 52 52 52 67 67 67 82 82 82 92 92 93 101 101 103 116 116 116 122 121 122 
122 121 122 128 128 128 128 128 128 132 131 131 128 128 128 128 128 128 116 116 116 116 116 116 
101 101 103 92 92 93 82 82 82 67 67 67 52 52 52 34 34 34 11 11 11 0 0 0 
0 0 0 0 0 0 0 0 0 0 0 0 0 0 0 0 0 0 0 0 0 0 0 0 
0 0 0 0 0 0 0 0 0 0 0 0 0 0 0 
0 0 0 0 0 0 0 0 0 0 0 0 0 0 0 0 0 0 0 0 0 0 0 0 
0 0 0 10 10 10 59 59 59 103 103 103 139 139 139 176 174 175 199 198 200 209 208 207 
215 215 215 224 223 223 227 227 227 238 238 238 238 238 238 245 244 244 247 247 247 249 249 248 
252 252 251 253 253 253 254 254 254 254 254 254 253 253 253 252 252 251 250 250 250 247 247 247 
242 242 241 238 238 238 234 234 233 227 227 227 224 223 223 215 215 215 209 208 207 199 198 200 
176 174 175 139 139 139 101 101 103 53 54 57 8 8 8 0 0 0 0 0 0 0 0 0 
0 0 0 0 0 0 0 0 0 0 0 0 0 0 0 
0 0 0 0 0 0 0 0 0 0 0 0 0 0 0 0 0 0 53 54 57 139 139 139 
209 208 207 238 238 238 245 244 244 248 248 248 252 252 251 254 254 254 255 255 255 255 255 255 
255 255 255 255 255 255 255 255 255 255 255 255 255 255 255 255 255 255 255 255 255 255 255 255 
255 255 255 255 255 255 255 255 255 255 255 255 255 255 255 255 255 255 255 255 255 255 255 255 
255 255 255 255 255 255 255 255 255 255 255 255 255 255 255 255 255 255 255 255 255 255 255 255 
254 254 254 252 252 251 247 247 247 245 244 244 240 240 241 203 200 199 132 131 131 52 52 52 
0 0 0 0 0 0 0 0 0 0 0 0 0 0 0 
0 0 0 0 0 0 0 0 0 16 15 16 116 116 116 234 234 233 255 255 255 255 255 255 
254 254 254 255 255 255 254 254 254 255 255 255 255 255 255 255 255 255 255 255 255 255 255 255 
255 255 255 255 255 255 255 255 255 255 255 255 255 255 255 255 255 255 255 255 255 255 255 255 
255 255 255 255 255 255 255 255 255 255 255 255 255 255 255 255 255 255 255 255 255 255 255 255 
255 255 255 255 255 255 255 255 255 255 255 255 255 255 255 255 255 255 255 255 255 255 255 255 
255 255 255 255 255 255 255 255 255 254 254 254 254 254 254 255 255 255 255 255 255 255 255 255 
227 227 227 107 107 107 16 15 16 0 0 0 0 0 0 
0 0 0 0 0 0 59 59 59 224 223 223 255 255 255 255 255 255 254 254 254 255 255 255 
255 255 255 255 255 255 255 255 255 255 255 255 255 255 255 255 255 255 255 255 255 255 255 255 
255 255 255 255 255 255 255 255 255 255 255 255 255 255 255 254 254 254 255 255 255 255 255 255 
255 255 255 255 255 255 255 255 255 255 255 255 255 255 255 255 255 255 255 255 255 254 254 254 
255 255 255 255 255 255 255 255 255 255 255 255 255 255 255 255 255 255 255 255 255 255 255 255 
255 255 255 255 255 255 255 255 255 255 255 255 255 255 255 255 255 255 255 255 255 255 255 255 
255 255 255 255 255 255 215 215 215 45 45 45 0 0 0 
0 0 0 8 8 8 154 151 149 255 255 255 254 254 254 254 254 254 255 255 255 255 255 255 
255 255 255 255 255 255 255 255 255 255 255 255 255 255 255 255 255 255 255 255 255 255 255 255 
255 255 255 255 255 255 254 254 254 255 255 255 255 255 255 255 255 255 255 255 255 250 250 250 
227 227 227 215 215 215 209 208 207 209 208 207 224 223 223 240 240 241 255 255 255 255 255 255 
255 255 255 255 255 255 254 254 254 255 255 255 255 255 255 255 255 255 255 255 255 255 255 255 
255 255 255 255 255 255 255 255 255 255 255 255 255 255 255 255 255 255 255 255 255 255 255 255 
254 254 254 254 254 254 255 255 255 139 139 139 4 4 4 
0 0 0 11 11 11 154 154 154 255 255 255 255 255 255 255 255 255 255 255 255 255 255 255 
255 255 255 255 255 255 255 255 255 255 255 255 255 255 255 255 255 255 255 255 255 255 255 255 
254 254 254 255 255 255 255 255 255 255 255 255 224 223 223 170 171 171 156 165 170 169 174 178 
169 174 178 176 174 175 170 171 171 169 174 178 156 165 170 156 165 170 139 148 161 156 156 157 
197 196 195 254 254 254 255 255 255 255 255 255 254 254 254 255 255 255 255 255 255 255 255 255 
255 255 255 255 255 255 255 255 255 255 255 255 255 255 255 255 255 255 255 255 255 255 255 255 
255 255 255 255 255 255 255 255 255 143 143 143 5 5 5 
0 0 0 11 11 11 154 154 154 255 255 255 255 255 255 255 255 255 255 255 255 255 255 255 
255 255 255 255 255 255 255 255 255 255 255 255 255 255 255 255 255 255 255 255 255 254 254 254 
255 255 255 255 255 255 193 190 189 120 129 139 117 144 165 155 195 224 185 205 220 185 205 220 
224 231 236 236 246 251 245 244 244 236 246 251 224 231 236 185 205 220 155 195 224 155 195 224 
117 144 165 79 112 141 154 151 149 249 249 248 255 255 255 254 254 254 254 254 254 255 255 255 
255 255 255 255 255 255 255 255 255 255 255 255 255 255 255 255 255 255 255 255 255 255 255 255 
255 255 255 255 255 255 255 255 255 143 143 143 5 5 5 
0 0 0 11 11 11 154 154 154 255 255 255 255 255 255 255 255 255 255 255 255 255 255 255 
255 255 255 255 255 255 255 255 255 255 255 255 255 255 255 254 254 254 255 255 255 255 255 255 
215 215 215 107 107 107 58 137 197 120 199 250 173 222 253 185 227 252 206 236 254 219 241 253 
236 246 251 236 246 251 236 246 251 236 246 251 219 241 253 219 241 253 206 236 254 173 222 253 
160 217 252 107 194 249 90 160 216 79 88 110 154 151 149 255 255 255 255 255 255 254 254 254 
255 255 255 255 255 255 255 255 255 255 255 255 255 255 255 255 255 255 255 255 255 255 255 255 
255 255 255 255 255 255 255 255 255 143 143 143 5 5 5 
0 0 0 11 11 11 154 154 154 255 255 255 255 255 255 255 255 255 255 255 255 255 255 255 
255 255 255 255 255 255 255 255 255 255 255 255 255 255 255 255 255 255 252 252 251 150 148 147 
53 112 163 87 190 251 120 199 250 160 217 252 173 222 253 185 227 252 194 231 252 206 236 254 
219 241 253 219 241 253 236 246 251 219 241 253 219 241 253 206 236 254 194 231 252 185 227 252 
160 217 252 150 214 252 107 194 249 82 188 251 58 137 197 96 99 99 224 223 223 255 255 255 
255 255 255 254 254 254 255 255 255 255 255 255 255 255 255 255 255 255 255 255 255 255 255 255 
255 255 255 255 255 255 255 255 255 143 143 143 5 5 5 
0 0 0 11 11 11 154 154 154 255 255 255 255 255 255 255 255 255 255 255 255 255 255 255 
255 255 255 255 255 255 255 255 255 254 254 254 254 254 254 224 231 236 120 129 139 74 148 212 
87 190 251 107 194 249 135 207 252 150 214 252 160 217 252 173 222 253 185 227 252 194 231 252 
206 236 254 219 241 253 206 236 254 206 236 254 206 236 254 194 231 252 185 227 252 160 217 252 
160 217 252 135 207 252 135 207 252 96 190 249 87 190 251 74 169 232 76 97 122 193 190 189 
252 252 251 255 255 255 254 254 254 255 255 255 255 255 255 255 255 255 255 255 255 255 255 255 
255 255 255 255 255 255 255 255 255 143 143 143 5 5 5 
0 0 0 11 11 11 154 154 154 255 255 255 255 255 255 255 255 255 255 255 255 255 255 255 
255 255 255 255 255 255 254 254 254 255 255 255 215 215 215 120 129 139 60 160 221 87 190 251 
82 188 251 107 194 249 120 199 250 135 207 252 150 214 252 160 217 252 173 222 253 185 227 252 
194 231 252 194 231 252 194 231 252 194 231 252 185 227 252 185 227 252 173 222 253 160 217 252 
150 214 252 135 207 252 120 199 250 107 194 249 82 188 251 87 190 251 80 180 243 58 89 122 
166 165 167 255 255 255 255 255 255 254 254 254 255 255 255 255 255 255 255 255 255 255 255 255 
255 255 255 255 255 255 255 255 255 143 143 143 5 5 5 
0 0 0 11 11 11 154 154 154 255 255 255 255 255 255 255 255 255 255 255 255 255 255 255 
255 255 255 254 254 254 254 254 254 224 223 223 79 112 141 60 160 221 87 190 251 82 184 248 
86 184 246 107 194 249 120 199 250 120 199 250 135 207 252 150 214 252 160 217 252 173 222 253 
173 222 253 173 222 253 185 205 220 173 222 253 173 222 253 160 217 252 150 214 252 150 214 252 
135 207 252 120 199 250 107 194 249 96 190 249 82 184 248 82 184 248 82 188 251 86 184 246 
54 105 148 150 148 147 255 255 255 254 254 254 255 255 255 255 255 255 255 255 255 255 255 255 
255 255 255 255 255 255 255 255 255 143 143 143 5 5 5 
0 0 0 11 11 11 154 154 154 255 255 255 255 255 255 255 255 255 255 255 255 255 255 255 
254 254 254 255 255 255 245 244 244 89 103 121 74 169 232 87 190 251 79 183 247 79 183 247 
86 184 246 96 190 249 107 194 249 120 199 250 120 199 250 135 207 252 135 207 252 155 195 224 
156 165 170 156 165 170 148 158 161 139 148 161 148 158 161 139 148 161 155 195 224 116 185 224 
116 185 224 116 185 224 96 190 249 96 190 249 79 183 247 82 184 248 82 184 248 82 188 251 
86 184 246 54 105 148 164 163 162 255 255 255 254 254 254 255 255 255 255 255 255 255 255 255 
255 255 255 255 255 255 255 255 255 143 143 143 5 5 5 
0 0 0 11 11 11 154 154 154 255 255 255 255 255 255 255 255 255 255 255 255 255 255 255 
255 255 255 254 254 254 116 116 116 74 169 232 82 184 248 79 183 247 79 183 247 79 183 247 
79 183 247 86 184 246 96 190 249 96 190 249 107 194 249 116 185 224 143 143 143 97 97 97 
97 97 97 97 97 97 97 97 97 97 97 97 92 92 93 82 82 82 86 86 86 97 97 97 
52 52 52 59 81 106 80 180 243 82 184 248 77 181 245 79 183 247 79 183 247 79 183 247 
82 184 248 80 180 243 79 88 110 209 208 207 255 255 255 254 254 254 255 255 255 255 255 255 
255 255 255 255 255 255 255 255 255 143 143 143 5 5 5 
0 0 0 11 11 11 154 154 154 255 255 255 255 255 255 255 255 255 255 255 255 255 255 255 
255 255 255 164 163 162 74 148 212 80 180 243 79 183 247 77 181 245 77 181 245 77 181 245 
75 179 244 75 179 244 86 184 246 86 184 246 90 160 216 107 107 107 56 59 67 59 59 59 
68 68 70 71 71 70 71 71 70 71 71 70 67 67 67 59 59 59 52 52 52 39 39 39 
28 28 28 45 45 45 74 169 232 80 180 243 75 179 244 77 181 245 77 181 245 77 181 245 
79 183 247 79 183 247 74 148 212 107 107 107 250 250 250 255 255 255 254 254 254 255 255 255 
255 255 255 255 255 255 255 255 255 143 143 143 5 5 5 
0 0 0 11 11 11 154 154 154 255 255 255 255 255 255 255 255 255 254 254 254 255 255 255 
227 227 227 117 144 165 74 169 232 77 181 245 77 181 245 75 179 244 75 179 244 75 177 243 
73 176 242 73 176 242 73 176 242 74 169 232 76 97 122 44 41 40 34 34 34 44 41 40 
56 59 67 86 86 86 79 112 141 89 103 121 56 59 67 45 45 45 29 29 31 28 24 22 
13 13 13 23 23 29 74 169 232 73 176 242 73 176 242 75 177 243 75 179 244 75 179 244 
77 181 245 77 181 245 80 180 243 54 105 148 176 174 175 255 255 255 255 255 255 255 255 255 
255 255 255 255 255 255 255 255 255 143 143 143 5 5 5 
0 0 0 11 11 11 154 154 154 255 255 255 255 255 255 255 255 255 255 255 255 255 255 255 
169 174 178 58 137 197 80 180 243 75 179 244 75 179 244 75 177 243 73 176 242 71 174 242 
71 174 242 69 173 241 71 174 242 74 148 212 39 39 39 11 11 11 16 15 16 56 59 67 
90 160 216 107 194 249 96 190 249 96 190 249 96 190 249 79 112 141 23 23 29 10 10 10 
3 2 0 13 16 21 74 148 212 71 174 242 71 174 242 71 174 242 73 176 242 75 177 243 
75 179 244 75 179 244 79 183 247 58 137 197 106 109 122 240 240 241 255 255 255 255 255 255 
255 255 255 255 255 255 255 255 255 143 143 143 5 5 5 
0 0 0 11 11 11 154 154 154 255 255 255 255 255 255 255 255 255 255 255 255 234 234 233 
117 144 165 74 169 232 75 179 244 75 177 243 71 174 242 71 174 242 71 174 242 69 173 241 
69 171 240 69 171 240 68 170 237 53 112 163 16 11 8 0 0 0 3 2 0 90 160 216 
75 177 243 74 169 232 71 173 241 74 169 232 69 171 240 74 169 232 40 74 107 0 0 0 
0 0 0 23 23 29 60 160 221 69 171 240 69 171 240 69 173 241 71 174 242 71 174 242 
73 176 242 75 177 243 75 179 244 75 179 244 58 89 122 199 198 200 255 255 255 255 255 255 
255 255 255 255 255 255 255 255 255 143 143 143 5 5 5 
0 0 0 11 11 11 154 154 154 255 255 255 255 255 255 255 255 255 255 255 255 215 215 215 
54 105 148 73 181 250 73 176 242 71 174 242 71 174 242 69 173 241 69 171 240 69 171 240 
66 170 240 66 168 238 64 166 237 53 112 163 16 11 8 0 0 0 0 0 0 58 137 197 
66 168 238 61 166 240 63 165 236 63 165 236 63 165 236 64 166 237 58 137 197 8 10 15 
1 1 1 39 58 85 60 160 221 68 170 237 66 170 240 69 171 240 69 171 240 69 173 241 
71 174 242 71 174 242 73 176 242 73 181 250 53 112 163 139 139 139 248 248 248 254 254 254 
255 255 255 255 255 255 255 255 255 143 143 143 5 5 5 
0 0 0 11 11 11 154 154 154 255 255 255 255 255 255 255 255 255 252 252 251 169 174 178 
58 137 197 75 179 244 71 174 242 69 173 241 69 171 240 69 171 240 66 170 240 65 167 237 
64 166 237 64 166 237 62 165 236 54 127 184 13 16 21 0 0 0 0 0 0 38 44 61 
58 137 197 61 166 240 61 168 244 61 164 237 59 163 235 59 160 233 59 160 233 54 127 184 
54 105 148 58 137 197 63 165 236 64 166 237 64 166 237 66 168 238 66 170 240 69 171 240 
69 171 240 69 173 241 71 174 242 80 180 243 59 160 233 66 71 85 242 242 241 254 254 254 
255 255 255 255 255 255 255 255 255 143 143 143 5 5 5 
0 0 0 11 11 11 154 154 154 255 255 255 255 255 255 255 255 255 247 247 247 120 129 139 
62 165 236 71 174 242 69 173 241 69 171 240 66 168 238 65 167 237 64 166 237 64 166 237 
62 164 236 61 163 235 59 163 235 56 139 213 23 46 84 0 0 0 0 0 0 1 1 1 
34 34 34 66 71 85 76 97 122 53 112 163 54 127 184 54 159 237 59 160 233 58 160 233 
59 160 233 59 163 235 61 163 235 61 163 235 62 165 236 64 166 237 65 167 237 66 168 238 
66 170 240 69 171 240 69 173 241 71 174 242 73 181 250 23 46 84 215 215 215 255 255 255 
255 255 255 255 255 255 255 255 255 143 143 143 5 5 5 
0 0 0 11 11 11 154 154 154 255 255 255 255 255 255 255 255 255 242 242 241 58 89 122 
73 181 250 69 171 240 66 170 240 66 168 238 64 166 237 63 165 236 62 164 236 59 163 235 
59 160 233 58 160 233 57 159 233 59 163 235 52 115 176 14 19 30 0 0 0 0 0 0 
0 0 0 1 1 1 1 1 1 28 24 22 44 41 40 52 52 52 58 89 122 52 115 176 
53 150 226 57 159 233 57 159 233 58 160 233 59 163 235 61 163 235 62 165 236 64 166 237 
65 167 237 66 168 238 66 170 240 69 173 241 73 181 250 32 78 121 154 154 154 255 255 255 
255 255 255 255 255 255 255 255 255 143 143 143 5 5 5 
0 0 0 11 11 11 154 154 154 255 255 255 255 255 255 255 255 255 234 234 233 41 88 134 
72 176 245 66 170 240 65 167 237 64 166 237 62 164 236 61 163 235 59 160 233 58 160 233 
57 159 233 56 157 232 54 157 232 53 155 231 57 159 233 52 115 176 23 36 64 10 10 10 
0 0 0 0 0 0 0 0 0 0 0 0 0 0 0 0 0 0 4 3 1 28 24 22 
40 74 107 56 139 213 57 160 233 56 157 232 57 159 233 58 160 233 59 163 235 61 163 235 
63 165 236 64 166 237 66 168 238 66 170 240 72 176 245 53 112 163 101 101 103 255 255 255 
255 255 255 255 255 255 255 255 255 143 143 143 5 5 5 
0 0 0 11 11 11 154 154 154 255 255 255 255 255 255 254 254 254 215 215 215 41 88 134 
67 173 244 64 166 237 63 165 236 61 164 237 59 160 233 58 160 233 57 159 233 56 157 232 
54 156 232 53 155 231 53 155 231 50 151 230 50 151 230 54 157 232 56 139 213 54 105 148 
39 58 85 38 44 61 23 23 29 5 5 5 0 0 0 0 0 0 1 1 1 0 0 0 
5 5 5 32 78 121 53 150 226 53 155 231 54 156 232 56 157 232 57 159 233 59 160 233 
59 163 235 62 164 236 63 165 236 65 167 237 67 173 244 54 127 184 68 68 70 253 253 253 
255 255 255 255 255 255 255 255 255 143 143 143 5 5 5 
0 0 0 11 11 11 154 154 154 255 255 255 255 255 255 255 255 255 192 193 193 41 103 161 
67 173 244 62 165 236 61 163 235 59 160 233 57 159 233 56 157 232 54 156 232 53 155 231 
50 151 230 50 151 230 49 151 228 45 150 232 45 150 232 45 150 232 45 150 232 50 151 230 
53 150 226 58 137 197 52 115 176 53 112 163 41 88 134 39 58 85 2 5 8 0 0 0 
0 0 0 2 5 8 54 127 184 50 151 230 53 155 231 53 155 231 54 157 232 57 159 233 
58 160 233 59 163 235 62 164 236 63 165 236 66 170 240 54 127 184 53 54 57 247 247 247 
255 255 255 255 255 255 255 255 255 143 143 143 5 5 5 
0 0 0 11 11 11 154 154 154 255 255 255 255 255 255 255 255 255 192 193 193 54 105 148 
61 168 244 59 163 235 58 160 233 57 159 233 54 157 232 53 155 231 53 155 231 50 151 230 
49 151 228 48 147 227 48 147 227 54 127 184 79 112 141 53 112 163 42 142 223 43 144 225 
42 142 223 42 143 225 43 144 225 48 147 227 45 146 225 44 139 216 41 103 161 8 10 15 
0 0 0 2 1 1 32 78 121 49 151 228 49 151 228 50 151 230 53 155 231 54 156 232 
57 159 233 58 160 233 59 160 233 61 164 237 64 166 237 58 137 197 45 45 45 240 240 241 
255 255 255 255 255 255 255 255 255 143 143 143 5 5 5 
0 0 0 11 11 11 154 154 154 255 255 255 255 255 255 255 255 255 199 198 200 41 88 134 
61 168 244 58 160 233 57 159 233 54 157 232 53 155 231 50 151 230 49 151 228 49 151 228 
48 147 227 45 147 226 44 139 216 56 59 67 4 3 1 8 10 15 34 121 204 44 139 216 
40 141 223 40 141 223 40 141 223 40 140 222 40 141 223 40 140 222 41 131 213 38 44 61 
1 1 1 0 0 0 39 58 85 45 150 232 45 147 226 49 151 228 49 151 228 53 155 231 
53 155 231 56 157 232 57 159 233 59 160 233 61 166 240 52 115 176 45 45 45 240 240 241 
255 255 255 255 255 255 255 255 255 143 143 143 5 5 5 
0 0 0 11 11 11 154 154 154 255 255 255 255 255 255 255 255 255 224 223 223 32 78 121 
61 168 244 57 159 233 54 156 232 53 155 231 50 151 230 49 151 228 48 147 227 45 147 226 
43 144 225 42 142 223 44 139 216 29 29 31 0 0 0 1 1 1 39 58 85 41 131 213 
36 136 220 35 137 222 36 136 220 36 136 220 38 139 222 36 136 220 42 128 205 53 54 57 
0 0 0 0 0 0 40 74 107 43 144 225 45 146 225 48 147 227 48 147 227 49 151 228 
50 151 230 53 155 231 54 157 232 57 159 233 61 168 244 54 105 148 53 54 57 242 242 241 
255 255 255 255 255 255 255 255 255 143 143 143 5 5 5 
0 0 0 11 11 11 154 154 154 255 255 255 255 255 255 255 255 255 240 240 241 40 74 107 
61 166 240 54 156 232 53 155 231 49 151 228 49 151 228 45 147 226 45 147 226 43 144 225 
42 142 223 40 141 223 41 131 213 28 28 28 0 0 0 0 0 0 4 4 4 39 58 85 
41 103 161 42 128 205 42 128 205 42 128 205 42 128 205 53 112 163 66 71 85 23 22 22 
0 0 0 0 0 0 54 105 148 44 139 216 42 143 225 43 144 225 45 147 226 48 147 227 
49 151 228 50 151 230 53 155 231 54 157 232 61 168 244 25 68 109 79 79 79 247 247 247 
255 255 255 255 255 255 255 255 255 143 143 143 5 5 5 
0 0 0 11 11 11 154 154 154 255 255 255 255 255 255 254 254 254 245 244 244 76 97 122 
55 154 230 53 155 231 50 151 230 49 151 228 45 147 226 45 147 226 43 144 225 42 142 223 
40 140 222 35 137 222 42 128 205 29 29 31 0 0 0 0 0 0 0 0 0 3 2 0 
28 24 22 45 45 45 39 58 85 40 74 107 56 59 67 44 41 40 8 8 8 0 0 0 
0 0 0 23 28 41 58 137 197 38 139 222 40 141 223 42 142 223 43 144 225 45 147 226 
48 147 227 49 151 228 50 151 230 53 155 231 61 164 237 23 36 64 107 107 107 253 253 253 
255 255 255 255 255 255 255 255 255 143 143 143 5 5 5 
0 0 0 11 11 11 154 154 154 255 255 255 255 255 255 255 255 255 249 249 248 143 143 143 
34 121 204 55 154 230 49 151 228 45 147 226 43 144 225 42 143 225 42 142 223 38 139 222 
36 136 220 36 136 220 34 121 204 23 28 41 0 0 0 0 0 0 0 0 0 0 0 0 
0 0 0 1 1 1 4 3 1 4 3 1 0 0 0 0 0 0 0 0 0 0 0 0 
23 23 29 52 115 176 34 131 216 36 136 220 38 139 222 40 140 222 42 142 223 43 144 225 
45 147 226 48 147 227 49 151 228 53 155 231 58 137 197 23 28 41 154 154 154 255 255 255 
255 255 255 255 255 255 255 255 255 143 143 143 5 5 5 
0 0 0 11 11 11 154 154 154 255 255 255 255 255 255 255 255 255 254 254 254 192 193 193 
41 88 134 53 155 231 45 147 226 45 147 226 44 139 216 54 105 148 33 108 185 35 137 222 
36 136 220 34 131 216 30 128 213 32 78 121 2 5 8 38 44 61 66 71 85 13 16 21 
0 0 0 0 0 0 0 0 0 0 0 0 0 0 0 0 0 0 4 4 4 40 74 107 
52 115 176 34 131 216 31 133 220 36 136 220 36 136 220 38 139 222 40 140 222 42 142 223 
43 144 225 45 146 225 45 150 232 53 155 231 41 103 161 23 28 41 197 196 195 255 255 255 
254 254 254 255 255 255 255 255 255 143 143 143 5 5 5 
0 0 0 11 11 11 154 154 154 255 255 255 255 255 255 255 255 255 255 255 255 222 218 215 
76 97 122 43 144 225 45 146 225 43 144 225 41 131 213 38 44 61 41 103 161 35 137 222 
31 133 220 29 130 217 30 128 213 30 128 213 42 128 205 42 128 205 24 124 212 42 128 205 
53 112 163 59 81 106 40 74 107 39 58 85 59 81 106 54 105 148 58 137 197 34 121 204 
29 130 217 27 126 214 29 130 217 34 131 216 31 133 220 36 136 220 35 137 222 40 140 222 
42 142 223 43 144 225 45 147 226 45 146 225 23 46 84 71 71 70 227 227 227 255 255 255 
255 255 255 255 255 255 255 255 255 143 143 143 5 5 5 
0 0 0 11 11 11 154 154 154 255 255 255 255 255 255 255 255 255 255 255 255 248 248 248 
139 148 161 41 103 161 45 147 226 42 142 223 42 128 205 38 44 61 41 103 161 31 133 220 
29 130 217 29 130 217 27 126 214 24 124 212 24 124 212 22 121 211 22 121 211 22 121 211 
22 121 211 19 119 211 22 121 211 22 121 211 22 121 211 19 119 211 19 119 211 24 124 212 
24 124 212 27 126 214 27 126 214 29 130 217 34 131 216 31 133 220 36 136 220 38 139 222 
40 140 222 42 142 223 45 147 226 52 115 176 23 28 41 132 131 131 248 248 248 255 255 255 
255 255 255 255 255 255 255 255 255 143 143 143 5 5 5 
0 0 0 11 11 11 154 154 154 255 255 255 255 255 255 255 255 255 254 254 254 255 255 255 
197 196 195 76 97 122 36 136 220 40 140 222 41 131 213 38 44 61 41 103 161 29 130 217 
30 128 213 24 124 212 24 124 212 22 121 211 22 121 211 19 119 211 17 115 207 17 115 207 
17 115 207 17 115 207 17 115 207 17 115 207 17 115 207 19 119 211 19 119 211 19 119 211 
22 121 211 22 121 211 24 124 212 27 126 214 30 128 213 30 128 213 34 131 216 34 131 216 
41 131 213 40 141 223 44 139 216 25 68 109 44 41 40 197 196 195 254 254 254 254 254 254 
255 255 255 255 255 255 255 255 255 143 143 143 5 5 5 
0 0 0 11 11 11 154 154 154 255 255 255 255 255 255 255 255 255 255 255 255 255 255 255 
255 255 255 122 121 122 41 103 161 40 141 223 34 121 204 39 39 39 23 46 84 41 88 134 
32 78 121 32 78 121 32 78 121 32 78 121 32 78 121 32 78 121 32 78 121 32 78 121 
32 78 121 32 78 121 32 78 121 32 78 121 32 78 121 32 78 121 32 78 121 32 78 121 
32 78 121 32 78 121 32 78 121 32 78 121 32 78 121 41 88 134 32 78 121 41 88 134 
40 74 107 44 139 216 41 103 161 13 16 21 116 116 116 238 238 238 255 255 255 255 255 255 
255 255 255 255 255 255 255 255 255 143 143 143 5 5 5 
0 0 0 11 11 11 154 154 154 255 255 255 255 255 255 255 255 255 255 255 255 254 254 254 
255 255 255 227 227 227 66 71 85 42 128 205 34 131 216 41 88 134 58 89 122 79 88 110 
79 88 110 79 88 110 79 88 110 79 88 110 79 88 110 79 88 110 79 88 110 79 88 110 
79 88 110 79 88 110 79 88 110 79 88 110 79 88 110 79 88 110 79 88 110 79 88 110 
79 88 110 91 90 103 79 88 110 91 90 103 79 88 110 91 90 103 79 88 110 91 90 103 
58 89 122 42 128 205 23 36 64 52 52 52 197 196 195 255 255 255 255 255 255 255 255 255 
255 255 255 255 255 255 255 255 255 143 143 143 5 5 5 
0 0 0 11 11 11 154 154 154 255 255 255 255 255 255 255 255 255 255 255 255 255 255 255 
254 254 254 255 255 255 193 190 189 23 46 84 41 131 213 31 133 220 42 128 205 30 128 213 
34 121 204 34 121 204 34 121 204 34 121 204 34 121 204 34 121 204 22 112 200 34 121 204 
22 112 200 22 112 200 22 112 200 34 121 204 22 112 200 34 121 204 24 117 204 34 121 204 
34 121 204 34 121 204 34 121 204 34 121 204 42 128 205 41 131 213 42 128 205 42 128 205 
44 139 216 23 46 84 23 22 22 143 143 143 247 247 247 255 255 255 255 255 255 255 255 255 
255 255 255 255 255 255 255 255 255 143 143 143 5 5 5 
0 0 0 11 11 11 154 154 154 255 255 255 255 255 255 255 255 255 255 255 255 255 255 255 
254 254 254 255 255 255 255 255 255 156 156 157 23 46 84 30 128 213 29 130 217 24 124 212 
22 121 211 19 119 211 17 115 207 14 114 207 12 111 206 12 111 206 12 111 206 10 106 202 
10 109 204 10 109 204 10 109 204 10 106 202 10 109 204 10 109 204 10 109 204 12 111 206 
14 114 207 17 115 207 19 119 211 19 119 211 22 121 211 24 124 212 29 130 217 31 133 220 
39 58 85 13 13 13 103 103 103 234 234 233 255 255 255 255 255 255 254 254 254 255 255 255 
255 255 255 255 255 255 255 255 255 143 143 143 5 5 5 
0 0 0 11 11 11 154 154 154 255 255 255 255 255 255 255 255 255 255 255 255 255 255 255 
255 255 255 255 255 255 254 254 254 255 255 255 132 131 131 23 46 84 34 121 204 24 124 212 
22 121 211 19 119 211 17 115 207 14 114 207 12 111 206 12 111 206 10 109 204 10 106 202 
6 104 202 6 104 202 6 104 202 6 104 202 6 104 202 10 106 202 10 109 204 12 111 206 
14 114 207 14 114 207 17 115 207 19 119 211 22 121 211 27 126 214 24 117 204 39 58 85 
8 10 15 82 82 82 215 215 215 255 255 255 255 255 255 255 255 255 255 255 255 255 255 255 
255 255 255 255 255 255 255 255 255 143 143 143 5 5 5 
0 0 0 11 11 11 154 154 154 255 255 255 255 255 255 255 255 255 255 255 255 255 255 255 
255 255 255 255 255 255 255 255 255 254 254 254 254 254 254 132 131 131 39 58 85 33 108 185 
17 115 207 19 119 211 14 114 207 14 114 207 12 111 206 10 109 204 10 106 202 6 104 202 
6 104 202 4 103 200 6 104 202 6 104 202 6 104 202 6 104 202 10 109 204 10 109 204 
12 111 206 14 114 207 17 115 207 19 119 211 22 121 211 33 108 185 23 46 84 13 13 13 
82 82 82 209 208 207 255 255 255 255 255 255 254 254 254 255 255 255 255 255 255 255 255 255 
255 255 255 255 255 255 255 255 255 143 143 143 5 5 5 
0 0 0 11 11 11 154 154 154 255 255 255 255 255 255 255 255 255 255 255 255 255 255 255 
255 255 255 255 255 255 255 255 255 254 254 254 255 255 255 252 252 251 154 151 149 56 59 67 
28 75 131 33 108 185 19 119 211 12 111 206 10 109 204 10 109 204 6 104 202 6 104 202 
4 103 200 4 103 200 4 103 200 4 103 200 4 103 200 6 104 202 6 104 202 10 109 204 
12 111 206 9 111 211 19 119 211 22 112 200 28 75 131 23 28 41 23 22 22 103 103 103 
209 208 207 255 255 255 255 255 255 254 254 254 255 255 255 255 255 255 255 255 255 255 255 255 
255 255 255 255 255 255 255 255 255 143 143 143 5 5 5 
0 0 0 11 11 11 154 154 154 255 255 255 255 255 255 255 255 255 255 255 255 255 255 255 
255 255 255 255 255 255 255 255 255 255 255 255 254 254 254 255 255 255 255 255 255 193 190 189 
92 92 93 23 36 64 25 68 109 33 108 185 9 111 211 9 111 211 6 107 206 4 103 200 
3 101 200 3 101 200 3 101 200 3 101 200 3 101 200 4 103 200 6 107 206 9 111 211 
9 111 211 33 108 185 28 75 131 23 36 64 16 15 16 50 46 45 139 139 139 227 227 227 
255 255 255 255 255 255 254 254 254 255 255 255 255 255 255 255 255 255 255 255 255 255 255 255 
255 255 255 255 255 255 255 255 255 143 143 143 5 5 5 
0 0 0 11 11 11 154 154 154 255 255 255 255 255 255 255 255 255 255 255 255 255 255 255 
255 255 255 255 255 255 255 255 255 255 255 255 254 254 254 254 254 254 255 255 255 255 255 255 
234 234 233 164 163 162 66 71 85 14 19 30 23 46 84 28 75 131 33 108 185 10 106 202 
6 107 206 6 107 206 6 107 206 6 107 206 9 111 211 3 101 200 33 108 185 28 75 131 
23 46 84 23 28 41 8 10 15 39 39 39 103 103 103 192 193 193 245 244 244 255 255 255 
255 255 255 254 254 254 255 255 255 255 255 255 255 255 255 255 255 255 255 255 255 255 255 255 
255 255 255 255 255 255 255 255 255 143 143 143 5 5 5 
0 0 0 11 11 11 154 154 154 255 255 255 255 255 255 255 255 255 255 255 255 255 255 255 
255 255 255 255 255 255 255 255 255 255 255 255 255 255 255 254 254 254 254 254 254 255 255 255 
255 255 255 252 252 251 227 227 227 166 165 167 82 82 82 23 23 29 8 10 15 14 19 30 
23 36 64 23 36 64 23 46 84 23 36 64 23 36 64 14 19 30 13 16 21 8 10 15 
23 23 29 52 52 52 107 107 107 193 190 189 238 238 238 254 254 254 255 255 255 255 255 255 
254 254 254 255 255 255 255 255 255 255 255 255 255 255 255 255 255 255 255 255 255 255 255 255 
255 255 255 255 255 255 255 255 255 143 143 143 5 5 5 
0 0 0 11 11 11 154 154 154 255 255 255 255 255 255 255 255 255 255 255 255 255 255 255 
255 255 255 255 255 255 255 255 255 255 255 255 255 255 255 255 255 255 255 255 255 255 255 255 
255 255 255 255 255 255 255 255 255 255 255 255 242 242 241 209 208 207 156 156 157 103 103 103 
67 67 67 52 52 52 44 41 40 44 41 40 45 45 45 59 59 59 86 86 86 122 121 122 
166 165 167 215 215 215 248 248 248 255 255 255 255 255 255 254 254 254 255 255 255 255 255 255 
255 255 255 255 255 255 255 255 255 255 255 255 255 255 255 255 255 255 255 255 255 255 255 255 
255 255 255 255 255 255 255 255 255 143 143 143 5 5 5 
0 0 0 11 11 11 154 154 154 254 254 254 234 234 233 252 252 251 252 252 251 253 253 253 
253 253 253 250 250 250 252 252 251 250 250 250 250 250 250 248 248 248 245 244 244 240 240 241 
247 247 247 255 255 255 249 249 248 254 254 254 255 255 255 255 255 255 255 255 255 252 252 251 
240 240 241 227 227 227 215 215 215 215 215 215 222 218 215 227 227 227 245 244 244 253 253 253 
255 255 255 255 255 255 255 255 255 254 254 254 255 255 255 255 255 255 255 255 255 255 255 255 
255 255 255 255 255 255 255 255 255 255 255 255 255 255 255 255 255 255 255 255 255 255 255 255 
255 255 255 255 255 255 255 255 255 143 143 143 5 5 5 
0 0 0 11 11 11 156 156 157 192 193 193 132 131 131 197 196 195 197 196 195 193 190 189 
186 186 186 181 181 181 192 193 193 186 186 186 186 186 186 181 181 181 186 186 186 170 171 171 
176 174 175 197 196 195 215 215 215 250 250 250 255 255 255 254 254 254 255 255 255 255 255 255 
255 255 255 255 255 255 255 255 255 255 255 255 255 255 255 255 255 255 255 255 255 255 255 255 
255 255 255 254 254 254 255 255 255 255 255 255 255 255 255 255 255 255 255 255 255 255 255 255 
255 255 255 255 255 255 255 255 255 255 255 255 255 255 255 255 255 255 255 255 255 255 255 255 
255 255 255 255 255 255 255 255 255 143 143 143 5 5 5 
0 0 0 11 11 11 156 156 157 215 215 215 222 218 215 170 171 171 166 165 167 154 154 154 
164 163 162 154 154 154 156 156 157 176 174 175 154 154 154 166 165 167 209 208 207 186 186 186 
166 165 167 107 107 107 227 227 227 245 244 244 255 255 255 255 255 255 255 255 255 255 255 255 
255 255 255 255 255 255 255 255 255 255 255 255 255 255 255 255 255 255 255 255 255 255 255 255 
255 255 255 254 254 254 255 255 255 255 255 255 255 255 255 255 255 255 255 255 255 255 255 255 
255 255 255 255 255 255 255 255 255 255 255 255 255 255 255 255 255 255 255 255 255 255 255 255 
255 255 255 255 255 255 255 255 255 143 143 143 5 5 5 
0 0 0 11 11 11 154 154 154 255 255 255 255 255 255 240 240 241 240 240 241 240 240 241 
248 248 248 242 242 241 245 244 244 253 253 253 245 244 244 249 249 248 254 254 254 252 252 251 
250 250 250 227 227 227 255 255 255 255 255 255 255 255 255 255 255 255 255 255 255 255 255 255 
255 255 255 255 255 255 255 255 255 255 255 255 255 255 255 255 255 255 255 255 255 255 255 255 
255 255 255 255 255 255 255 255 255 255 255 255 255 255 255 255 255 255 255 255 255 255 255 255 
255 255 255 255 255 255 255 255 255 255 255 255 255 255 255 254 254 254 254 254 254 255 255 255 
255 255 255 255 255 255 255 255 255 143 143 143 5 5 5 
0 0 0 11 11 11 154 154 154 255 255 255 255 255 255 255 255 255 255 255 255 255 255 255 
255 255 255 255 255 255 227 227 227 199 198 200 176 174 175 154 154 154 132 131 131 116 116 116 
97 97 97 79 79 79 67 67 67 59 59 59 45 45 45 39 39 39 34 34 34 29 29 31 
23 22 22 23 22 22 23 22 22 23 22 22 23 22 22 28 24 22 29 29 31 34 34 34 
44 41 40 50 46 45 59 59 59 67 67 67 82 82 82 101 101 103 116 116 116 132 131 131 
156 156 157 181 181 181 203 200 199 238 238 238 254 254 254 255 255 255 255 255 255 255 255 255 
255 255 255 255 255 255 255 255 255 143 143 143 5 5 5 
0 0 0 11 11 11 154 154 154 255 255 255 227 227 227 166 165 167 116 116 116 68 68 70 
28 24 22 1 1 1 0 0 0 0 0 0 0 0 0 0 0 0 0 0 0 0 0 0 
0 0 0 0 0 0 0 0 0 0 0 0 0 0 0 0 0 0 0 0 0 0 0 0 
0 0 0 1 1 1 0 0 0 1 1 1 0 0 0 0 0 0 0 0 0 0 0 0 
0 0 0 0 0 0 0 0 0 0 0 0 0 0 0 0 0 0 0 0 0 0 0 0 
0 0 0 0 0 0 0 0 0 0 0 0 4 4 4 29 29 31 79 79 79 122 121 122 
181 181 181 238 238 238 255 255 255 143 143 143 5 5 5 
0 0 0 8 8 8 71 71 70 45 45 45 1 1 1 0 0 0 0 0 0 0 0 0 
0 0 0 0 0 0 0 0 0 0 0 0 0 0 0 0 0 0 0 0 0 0 0 0 
0 0 0 0 0 0 0 0 0 0 0 0 0 0 0 0 0 0 0 0 0 0 0 0 
0 0 0 0 0 0 0 0 0 0 0 0 0 0 0 0 0 0 0 0 0 0 0 0 
0 0 0 0 0 0 0 0 0 0 0 0 0 0 0 0 0 0 0 0 0 0 0 0 
0 0 0 0 0 0 0 0 0 0 0 0 0 0 0 0 0 0 0 0 0 0 0 0 
0 0 0 0 0 0 67 67 67 82 82 82 3 3 3 
0 0 0 0 0 0 0 0 0 0 0 0 0 0 0 0 0 0 0 0 0 0 0 0 
0 0 0 0 0 0 0 0 0 0 0 0 0 0 0 0 0 0 0 0 0 0 0 0 
0 0 0 0 0 0 0 0 0 0 0 0 0 0 0 0 0 0 0 0 0 0 0 0 
0 0 0 0 0 0 0 0 0 0 0 0 0 0 0 0 0 0 0 0 0 0 0 0 
0 0 0 0 0 0 0 0 0 0 0 0 0 0 0 0 0 0 0 0 0 0 0 0 
0 0 0 0 0 0 0 0 0 0 0 0 0 0 0 0 0 0 0 0 0 0 0 0 
0 0 0 0 0 0 0 0 0 0 0 0 0 0 0 
0 0 0 0 0 0 0 0 0 0 0 0 0 0 0 0 0 0 0 0 0 0 0 0 
0 0 0 0 0 0 0 0 0 0 0 0 0 0 0 0 0 0 0 0 0 0 0 0 
0 0 0 0 0 0 0 0 0 0 0 0 0 0 0 0 0 0 0 0 0 0 0 0 
0 0 0 0 0 0 0 0 0 0 0 0 0 0 0 0 0 0 0 0 0 0 0 0 
0 0 0 0 0 0 0 0 0 0 0 0 0 0 0 0 0 0 0 0 0 0 0 0 
0 0 0 0 0 0 0 0 0 0 0 0 0 0 0 0 0 0 0 0 0 0 0 0 
0 0 0 0 0 0 0 0 0 0 0 0 0 0 0 
0 0 0 0 0 0 0 0 0 0 0 0 0 0 0 0 0 0 0 0 0 0 0 0 
0 0 0 0 0 0 0 0 0 0 0 0 0 0 0 0 0 0 0 0 0 0 0 0 
0 0 0 0 0 0 0 0 0 0 0 0 0 0 0 0 0 0 0 0 0 0 0 0 
0 0 0 0 0 0 0 0 0 0 0 0 0 0 0 0 0 0 0 0 0 0 0 0 
0 0 0 0 0 0 0 0 0 0 0 0 0 0 0 0 0 0 0 0 0 0 0 0 
0 0 0 0 0 0 0 0 0 0 0 0 0 0 0 0 0 0 0 0 0 0 0 0 
0 0 0 0 0 0 0 0 0 0 0 0 0 0 0 
0 0 0 0 0 0 0 0 0 0 0 0 0 0 0 0 0 0 0 0 0 0 0 0 
0 0 0 0 0 0 0 0 0 0 0 0 0 0 0 0 0 0 0 0 0 0 0 0 
0 0 0 0 0 0 0 0 0 0 0 0 0 0 0 0 0 0 0 0 0 0 0 0 
0 0 0 0 0 0 0 0 0 0 0 0 0 0 0 0 0 0 0 0 0 0 0 0 
0 0 0 0 0 0 0 0 0 0 0 0 0 0 0 0 0 0 0 0 0 0 0 0 
0 0 0 0 0 0 0 0 0 0 0 0 0 0 0 0 0 0 0 0 0 0 0 0 
0 0 0 0 0 0 0 0 0 0 0 0 0 0 0 
0 0 0 0 0 0 0 0 0 0 0 0 0 0 0 0 0 0 0 0 0 0 0 0 
0 0 0 0 0 0 0 0 0 0 0 0 0 0 0 0 0 0 0 0 0 0 0 0 
0 0 0 0 0 0 0 0 0 0 0 0 0 0 0 0 0 0 0 0 0 0 0 0 
0 0 0 0 0 0 0 0 0 0 0 0 0 0 0 0 0 0 0 0 0 0 0 0 
0 0 0 0 0 0 0 0 0 0 0 0 0 0 0 0 0 0 0 0 0 0 0 0 
0 0 0 0 0 0 0 0 0 0 0 0 0 0 0 0 0 0 0 0 0 0 0 0 
0 0 0 0 0 0 0 0 0 0 0 0 0 0 0 
0 0 0 0 0 0 0 0 0 0 0 0 0 0 0 0 0 0 0 0 0 0 0 0 
5 5 5 4 4 4 0 0 0 45 45 45 209 208 207 192 193 193 0 0 0 0 0 0 
0 0 0 8 8 8 8 8 8 0 0 0 0 0 0 0 0 0 4 4 4 4 4 4 
1 1 1 67 67 67 203 200 199 45 45 45 1 1 1 2 1 1 2 1 1 2 1 1 
0 0 0 2 1 1 3 3 3 0 0 0 5 5 5 8 8 8 1 1 1 0 0 0 
2 1 1 3 3 3 0 0 0 5 5 5 0 0 0 0 0 0 4 4 4 5 5 5 
0 0 0 0 0 0 0 0 0 0 0 0 0 0 0 
0 0 0 0 0 0 0 0 0 0 0 0 0 0 0 0 0 0 3 3 3 71 71 70 
82 82 82 96 99 99 16 15 16 0 0 0 2 1 1 156 156 157 0 0 0 0 0 0 
34 34 34 97 97 97 97 97 97 44 41 40 0 0 0 44 41 40 92 92 93 82 82 82 
97 97 97 4 4 4 107 107 107 82 82 82 107 107 107 67 67 67 79 79 79 79 79 79 
10 10 10 68 68 70 96 99 99 16 15 16 86 86 86 103 103 103 50 46 45 0 0 0 
59 59 59 103 103 103 68 68 70 92 92 93 28 24 22 34 34 34 86 86 86 86 86 86 
45 45 45 0 0 0 0 0 0 0 0 0 0 0 0 
0 0 0 0 0 0 0 0 0 0 0 0 0 0 0 0 0 0 13 13 13 215 215 215 
139 139 139 154 154 154 23 22 22 0 0 0 16 15 16 156 156 157 1 1 1 0 0 0 
86 86 86 176 174 175 181 181 181 156 156 157 1 1 1 146 146 146 96 99 99 82 82 82 
181 181 181 0 0 0 132 131 131 197 196 195 150 148 147 67 67 67 107 107 107 197 196 195 
107 107 107 154 154 154 164 163 162 29 29 31 186 186 186 197 196 195 154 151 149 10 10 10 
53 54 57 224 223 223 122 121 122 79 79 79 39 39 39 170 171 171 166 165 167 156 156 157 
197 196 195 8 8 8 0 0 0 0 0 0 0 0 0 
0 0 0 0 0 0 0 0 0 0 0 0 0 0 0 0 0 0 8 8 8 122 121 122 
68 68 70 150 148 147 29 29 31 0 0 0 3 3 3 154 154 154 0 0 0 0 0 0 
156 156 157 67 67 67 86 86 86 176 174 175 13 13 13 143 143 143 3 3 3 0 0 0 
53 54 57 16 15 16 128 128 128 197 196 195 101 101 103 0 0 0 28 28 28 215 215 215 
192 193 193 209 208 207 39 39 39 116 116 116 101 101 103 92 92 93 132 131 131 16 15 16 
0 0 0 186 186 186 0 0 0 0 0 0 11 11 11 186 186 186 82 82 82 82 82 82 
96 99 99 23 22 22 0 0 0 0 0 0 0 0 0 
0 0 0 0 0 0 0 0 0 0 0 0 8 8 8 5 5 5 13 13 13 203 200 199 
170 171 171 203 200 199 29 29 31 59 59 59 186 186 186 238 238 238 150 148 147 23 22 22 
181 181 181 164 163 162 197 196 195 227 227 227 53 54 57 122 121 122 176 174 175 176 174 175 
150 148 147 59 59 59 197 196 195 68 68 70 234 234 233 181 181 181 23 22 22 156 156 157 
132 131 131 192 193 193 16 15 16 103 103 103 199 198 200 193 190 189 234 234 233 67 67 67 
150 148 147 247 247 247 166 165 167 86 86 86 1 1 1 128 128 128 181 181 181 170 171 171 
176 174 175 34 34 34 0 0 0 0 0 0 0 0 0 
0 0 0 0 0 0 0 0 0 0 0 0 52 52 52 34 34 34 1 1 1 34 34 34 
23 22 22 16 15 16 0 0 0 1 1 1 4 4 4 5 5 5 5 5 5 0 0 0 
0 0 0 39 39 39 8 8 8 8 8 8 3 3 3 0 0 0 23 23 29 28 24 22 
1 1 1 1 1 1 4 4 4 1 1 1 4 4 4 4 4 4 0 0 0 2 1 1 
3 3 3 3 3 3 0 0 0 1 1 1 29 29 31 16 15 16 3 3 3 1 1 1 
3 3 3 5 5 5 4 5 4 2 1 1 0 0 0 0 0 0 23 22 22 39 39 39 
0 0 0 0 0 0 0 0 0 0 0 0 0 0 0 
0 0 0 0 0 0 0 0 0 0 0 0 52 52 52 45 45 45 10 10 10 10 10 10 
10 10 10 10 10 10 11 11 11 11 11 11 11 11 11 11 11 11 11 11 11 11 11 11 
11 11 11 10 10 10 10 10 10 11 11 11 11 11 11 11 11 11 10 10 10 10 10 10 
11 11 11 11 11 11 11 11 11 11 11 11 11 11 11 11 11 11 8 8 8 45 45 45 
28 28 28 0 0 0 0 0 0 53 54 57 0 0 0 0 0 0 4 4 4 10 10 10 
1 1 1 0 0 0 2 1 1 8 8 8 2 1 1 0 0 0 4 4 4 10 10 10 
1 1 1 0 0 0 0 0 0 0 0 0 0 0 0 
0 0 0 0 0 0 0 0 0 0 0 0 34 34 34 103 103 103 96 99 99 97 97 97 
97 97 97 97 97 97 97 97 97 97 97 97 97 97 97 97 97 97 97 97 97 97 97 97 
97 97 97 97 97 97 97 97 97 97 97 97 97 97 97 97 97 97 97 97 97 97 97 97 
97 97 97 97 97 97 97 97 97 97 97 97 97 97 97 97 97 97 44 41 40 34 34 34 
52 52 52 0 0 0 1 1 1 107 107 107 8 8 8 1 1 1 59 59 59 128 128 128 
29 29 31 0 0 0 34 34 34 116 116 116 44 41 40 0 0 0 68 68 70 146 146 146 
13 13 13 0 0 0 0 0 0 0 0 0 0 0 0 
0 0 0 0 0 0 0 0 0 0 0 0 0 0 0 0 0 0 0 0 0 0 0 0 
0 0 0 0 0 0 0 0 0 0 0 0 0 0 0 0 0 0 0 0 0 0 0 0 
0 0 0 0 0 0 0 0 0 0 0 0 0 0 0 0 0 0 0 0 0 0 0 0 
0 0 0 0 0 0 0 0 0 0 0 0 0 0 0 0 0 0 0 0 0 45 45 45 
44 41 40 0 0 0 0 0 0 67 67 67 28 28 28 0 0 0 34 34 34 59 59 59 
34 34 34 0 0 0 11 11 11 79 79 79 28 28 28 0 0 0 34 34 34 71 71 70 
8 8 8 0 0 0 0 0 0 0 0 0 0 0 0 
0 0 0 0 0 0 0 0 0 0 0 0 0 0 0 0 0 0 0 0 0 0 0 0 
0 0 0 0 0 0 0 0 0 0 0 0 0 0 0 0 0 0 0 0 0 0 0 0 
0 0 0 0 0 0 0 0 0 0 0 0 0 0 0 0 0 0 0 0 0 0 0 0 
0 0 0 0 0 0 0 0 0 0 0 0 0 0 0 0 0 0 0 0 0 0 0 0 
0 0 0 0 0 0 0 0 0 0 0 0 0 0 0 0 0 0 0 0 0 0 0 0 
0 0 0 0 0 0 0 0 0 0 0 0 0 0 0 0 0 0 0 0 0 0 0 0 
0 0 0 0 0 0 0 0 0 0 0 0 0 0 0 
0 0 0 0 0 0 0 0 0 0 0 0 0 0 0 0 0 0 0 0 0 0 0 0 
0 0 0 0 0 0 0 0 0 0 0 0 0 0 0 0 0 0 0 0 0 0 0 0 
0 0 0 0 0 0 0 0 0 0 0 0 0 0 0 0 0 0 0 0 0 0 0 0 
0 0 0 0 0 0 0 0 0 0 0 0 0 0 0 0 0 0 0 0 0 0 0 0 
0 0 0 0 0 0 0 0 0 0 0 0 0 0 0 0 0 0 0 0 0 0 0 0 
0 0 0 0 0 0 0 0 0 0 0 0 0 0 0 0 0 0 0 0 0 0 0 0 
0 0 0 0 0 0 0 0 0 0 0 0 0 0 0 
0 0 0 0 0 0 0 0 0 0 0 0 0 0 0 0 0 0 0 0 0 0 0 0 
0 0 0 0 0 0 0 0 0 0 0 0 0 0 0 0 0 0 0 0 0 0 0 0 
0 0 0 0 0 0 0 0 0 0 0 0 0 0 0 0 0 0 0 0 0 0 0 0 
0 0 0 0 0 0 0 0 0 0 0 0 0 0 0 0 0 0 0 0 0 0 0 0 
0 0 0 0 0 0 0 0 0 0 0 0 0 0 0 0 0 0 0 0 0 0 0 0 
0 0 0 0 0 0 0 0 0 0 0 0 0 0 0 0 0 0 0 0 0 0 0 0 
0 0 0 0 0 0 0 0 0 0 0 0 0 0 0 
0 0 0 0 0 0 0 0 0 0 0 0 0 0 0 0 0 0 0 0 0 0 0 0 
0 0 0 0 0 0 0 0 0 0 0 0 0 0 0 0 0 0 0 0 0 0 0 0 
0 0 0 0 0 0 0 0 0 0 0 0 0 0 0 0 0 0 0 0 0 0 0 0 
0 0 0 0 0 0 0 0 0 0 0 0 0 0 0 0 0 0 0 0 0 0 0 0 
0 0 0 0 0 0 0 0 0 0 0 0 0 0 0 0 0 0 0 0 0 0 0 0 
0 0 0 0 0 0 0 0 0 0 0 0 0 0 0 0 0 0 0 0 0 0 0 0 
0 0 0 0 0 0 0 0 0 0 0 0 0 0 0 
0 0 0 0 0 0 0 0 0 0 0 0 0 0 0 0 0 0 0 0 0 0 0 0 
0 0 0 0 0 0 0 0 0 0 0 0 0 0 0 0 0 0 0 0 0 0 0 0 
0 0 0 0 0 0 0 0 0 0 0 0 0 0 0 0 0 0 0 0 0 0 0 0 
0 0 0 0 0 0 0 0 0 0 0 0 0 0 0 0 0 0 0 0 0 0 0 0 
0 0 0 0 0 0 0 0 0 0 0 0 0 0 0 0 0 0 0 0 0 0 0 0 
0 0 0 0 0 0 0 0 0 0 0 0 0 0 0 0 0 0 0 0 0 0 0 0 
0 0 0 0 0 0 0 0 0 0 0 0 0 0 0 
0 0 0 0 0 0 0 0 0 0 0 0 0 0 0 0 0 0 0 0 0 0 0 0 
0 0 0 0 0 0 0 0 0 0 0 0 0 0 0 0 0 0 0 0 0 0 0 0 
0 0 0 0 0 0 0 0 0 0 0 0 0 0 0 0 0 0 0 0 0 0 0 0 
0 0 0 0 0 0 0 0 0 0 0 0 0 0 0 0 0 0 0 0 0 0 0 0 
0 0 0 0 0 0 0 0 0 0 0 0 0 0 0 0 0 0 0 0 0 0 0 0 
0 0 0 0 0 0 0 0 0 0 0 0 0 0 0 0 0 0 0 0 0 0 0 0 
0 0 0 0 0 0 0 0 0 0 0 0 0 0 0 
0 0 0 0 0 0 0 0 0 0 0 0 0 0 0 0 0 0 0 0 0 0 0 0 
0 0 0 0 0 0 0 0 0 0 0 0 0 0 0 0 0 0 0 0 0 0 0 0 
0 0 0 0 0 0 0 0 0 0 0 0 0 0 0 0 0 0 0 0 0 0 0 0 
0 0 0 0 0 0 0 0 0 0 0 0 0 0 0 0 0 0 0 0 0 0 0 0 
0 0 0 0 0 0 0 0 0 0 0 0 0 0 0 0 0 0 0 0 0 0 0 0 
0 0 0 0 0 0 0 0 0 0 0 0 0 0 0 0 0 0 0 0 0 0 0 0 
0 0 0 0 0 0 0 0 0 0 0 0 0 0 0 
0 0 0 0 0 0 0 0 0 0 0 0 0 0 0 0 0 0 0 0 0 0 0 0 
0 0 0 0 0 0 0 0 0 0 0 0 0 0 0 0 0 0 0 0 0 0 0 0 
0 0 0 0 0 0 0 0 0 0 0 0 0 0 0 0 0 0 0 0 0 0 0 0 
0 0 0 0 0 0 0 0 0 0 0 0 0 0 0 0 0 0 0 0 0 0 0 0 
0 0 0 0 0 0 0 0 0 0 0 0 0 0 0 0 0 0 0 0 0 0 0 0 
0 0 0 0 0 0 0 0 0 0 0 0 0 0 0 0 0 0 0 0 0 0 0 0 
0 0 0 0 0 0 0 0 0 0 0 0 0 0 0 
0 0 0 0 0 0 0 0 0 0 0 0 0 0 0 0 0 0 0 0 0 0 0 0 
0 0 0 0 0 0 0 0 0 0 0 0 0 0 0 0 0 0 0 0 0 0 0 0 
0 0 0 0 0 0 0 0 0 0 0 0 0 0 0 0 0 0 0 0 0 0 0 0 
0 0 0 0 0 0 0 0 0 0 0 0 0 0 0 0 0 0 0 0 0 0 0 0 
0 0 0 0 0 0 0 0 0 0 0 0 0 0 0 0 0 0 0 0 0 0 0 0 
0 0 0 0 0 0 0 0 0 0 0 0 0 0 0 0 0 0 0 0 0 0 0 0 
0 0 0 0 0 0 0 0 0 0 0 0 0 0 0 
